<svg xmlns="http://www.w3.org/2000/svg" xmlns:xlink="http://www.w3.org/1999/xlink" version="1.1" width="121.99730682373047" height="130.05686950683594" viewBox="0.5382208824157715 0.4431348443031311 121.99730682373047 130.05686950683594">
  <!-- Exported by Scratch - http://scratch.mit.edu/ -->
  <path id="ID0.6796940262429416" fill="#FFFFFF" stroke="none" stroke-linecap="round" d="M 60.9615 0.958 C 79.8329 0.306 91.1465 21.2513 104.0969 34.3543 C 111.5962 41.9281 121.9539 50.161 122.0349 60.3689 C 122.1159 70.5769 114.4281 81.8474 104.512 86.6651 C 91.8931 92.777 76.1539 89.5348 61.9684 90.0303 C 47.5998 89.7614 31.652 93.2477 18.9767 87.3439 C 8.9904 82.6778 1.1197 71.5372 1.0387 61.3292 C 0.9577 51.1213 11.1643 42.7122 18.5615 35.0331 C 31.3742 21.71 42.1581 0.605 60.9615 0.958 Z " stroke-width="0.9632302515721066"/>
  <path id="ID0.31889246916398406" fill="#FFFFFF" stroke="none" d="M 60 90 L 66 90 L 66 130 L 60 130 L 60 90 Z " stroke-width="1"/>
  <path id="ID0.31889246916398406" fill="#FFFFFF" stroke="none" d="M 55.7244 85.9471 L 60.2554 89.8803 L 34.034 120.0869 L 29.503 116.1537 L 55.7244 85.9471 Z " stroke-width="0.9999999771441013"/>
  <path id="ID0.31889246916398406" fill="#FFFFFF" stroke="none" d="M 65.6453 88.303 L 70.5096 84.7904 L 93.9269 117.2193 L 89.0625 120.7318 L 65.6453 88.303 Z " stroke-width="0.9999999228818682"/>
  <path id="ID0.9362160312011838" fill="#000000" stroke="none" d="M 44.5 40 C 45.466 40 46.341 40.504 46.974 41.319 C 47.608 42.133 48 43.258 48 44.5 C 48 45.742 47.608 46.867 46.974 47.681 C 46.341 48.496 45.466 49 44.5 49 C 43.534 49 42.659 48.496 42.026 47.681 C 41.392 46.867 41 45.742 41 44.5 C 41 43.258 41.392 42.133 42.026 41.319 C 42.659 40.504 43.534 40 44.5 40 Z " stroke-width="1"/>
  <path id="ID0.9362160312011838" fill="#000000" stroke="none" d="M 76 39.5 C 76.966 39.5 77.841 40.004 78.474 40.819 C 79.108 41.633 79.5 42.758 79.5 44 C 79.5 45.242 79.108 46.367 78.474 47.181 C 77.841 47.996 76.966 48.5 76 48.5 C 75.034 48.5 74.159 47.996 73.526 47.181 C 72.892 46.367 72.5 45.242 72.5 44 C 72.5 42.758 72.892 41.633 73.526 40.819 C 74.159 40.004 75.034 39.5 76 39.5 Z " stroke-width="1"/>
</svg>